<svg width="24" height="24" viewBox="0 0 24 24" fill="none" xmlns="http://www.w3.org/2000/svg">
<path d="M12 8.877a3.123 3.123 0 1 0 0 6.246 3.123 3.123 0 0 0 0-6.246zM12 16.965A4.965 4.965 0 1 1 12 7.035a4.965 4.965 0 0 1 0 9.93z" fill="#274C5B"/>
<path d="M18.188 7.375a1.125 1.125 0 1 1-2.25 0 1.125 1.125 0 0 1 2.25 0z" fill="#274C5B"/>
<path d="M12 3c-2.444 0-2.75.012-3.71.054-.96.043-1.615.195-2.188.412a4.418 4.418 0 0 0-1.595 1.04A4.418 4.418 0 0 0 3.466 6.1c-.217.573-.37 1.228-.412 2.188C3.012 9.25 3 9.556 3 12s.012 2.75.054 3.71c.043.96.195 1.615.412 2.188.227.592.593.958 1.04 1.595.637.447 1.003.813 1.595 1.04.573.217 1.228.37 2.188.412.96.042 1.266.054 3.71.054s2.75-.012 3.71-.054c.96-.043 1.615-.195 2.188-.412a4.418 4.418 0 0 0 1.595-1.04 4.418 4.418 0 0 0 1.04-1.595c.217-.573.37-1.228.412-2.188.042-.96.054-1.266.054-3.71s-.012-2.75-.054-3.71c-.043-.96-.195-1.615-.412-2.188a4.418 4.418 0 0 0-1.04-1.595A4.418 4.418 0 0 0 17.9 3.466c-.573-.217-1.228-.37-2.188-.412C14.75 3.012 14.444 3 12 3zm0 1.622c2.403 0 2.688.009 3.637.05.877.04 1.354.187 1.671.31.42.163.72.358 1.035.673.315.315.51.615.673 1.035.123.317.27.794.31 1.671.041.95.05 1.234.05 3.637s-.009 2.688-.05 3.637c-.04.877-.187 1.354-.31 1.671-.163.42-.358.72-.673 1.035a2.796 2.796 0 0 1-1.035.673c-.317.123-.794.27-1.671.31-.95.041-1.234.05-3.637.05s-2.688-.009-3.637-.05c-.877-.04-1.354-.187-1.671-.31a2.796 2.796 0 0 1-1.035-.673 2.796 2.796 0 0 1-.673-1.035c-.123-.317-.27-.794-.31-1.671-.041-.95-.05-1.234-.05-3.637s.009-2.688.05-3.637c.04-.877.187-1.354.31-1.671.163-.42.358-.72.673-1.035.315-.315.615-.51 1.035-.673.317-.123.794-.27 1.671-.31.95-.041 1.234-.05 3.637-.05z" fill="#274C5B"/>
</svg>